<svg xmlns="http://www.w3.org/2000/svg" xmlns:xlink="http://www.w3.org/1999/xlink" width="210" height="185.175" viewBox="0 0 210 185.175">
  <defs>
    <filter id="Pfad_2" x="0" y="0" width="146.885" height="177.523" filterUnits="userSpaceOnUse">
      <feOffset dy="3" input="SourceAlpha"/>
      <feGaussianBlur stdDeviation="3" result="blur"/>
      <feFlood flood-opacity="0.161"/>
      <feComposite operator="in" in2="blur"/>
      <feComposite in="SourceGraphic"/>
    </filter>
    <filter id="Rechteck_2" x="52.519" y="4.093" width="107.355" height="153.687" filterUnits="userSpaceOnUse">
      <feOffset dy="3" input="SourceAlpha"/>
      <feGaussianBlur stdDeviation="3" result="blur-2"/>
      <feFlood flood-opacity="0.161"/>
      <feComposite operator="in" in2="blur-2"/>
      <feComposite in="SourceGraphic"/>
    </filter>
    <filter id="Pfad_3" x="70.531" y="10.765" width="139.468" height="174.41" filterUnits="userSpaceOnUse">
      <feOffset dy="3" input="SourceAlpha"/>
      <feGaussianBlur stdDeviation="3" result="blur-3"/>
      <feFlood flood-opacity="0.161"/>
      <feComposite operator="in" in2="blur-3"/>
      <feComposite in="SourceGraphic"/>
    </filter>
  </defs>
  <g id="Gruppe_20" data-name="Gruppe 20" transform="translate(-235.13 -144.763)">
    <g id="Gruppe_2" data-name="Gruppe 2" transform="translate(244.13 150.763)">
      <g transform="matrix(1, 0, 0, 1, -9, -6)" filter="url(#Pfad_2)">
        <path id="Pfad_2-2" data-name="Pfad 2" d="M9.213,0,79.486.02A9.219,9.219,0,0,1,88.7,9.232l.034,119.721a9.206,9.206,0,0,1-9.213,9.207l-70.273-.02a9.219,9.219,0,0,1-9.219-9.212L0,9.207A9.206,9.206,0,0,1,9.213,0Z" transform="translate(9 34.89) rotate(-19)" fill="#66bb6a"/>
      </g>
      <g transform="matrix(1, 0, 0, 1, -9, -6)" filter="url(#Rechteck_2)">
        <rect id="Rechteck_2-2" data-name="Rechteck 2" width="89.355" height="135.687" rx="8" transform="translate(61.52 10.09)" fill="#00c853"/>
      </g>
      <g transform="matrix(1, 0, 0, 1, -9, -6)" filter="url(#Pfad_3)">
        <path id="Pfad_3-2" data-name="Pfad 3" d="M9.247.016,79.522,0a9.208,9.208,0,0,1,9.214,9.207l-.028,119.717a9.218,9.218,0,0,1-9.219,9.211l-70.275.016A9.208,9.208,0,0,1,0,128.944L.028,9.228A9.218,9.218,0,0,1,9.247.016Z" transform="translate(115.29 16.76) rotate(15)" fill="#43a047"/>
      </g>
    </g>
    <g id="Gruppe_1" data-name="Gruppe 1" transform="translate(301.608 217.863)">
      <path id="Pfad_1" data-name="Pfad 1" d="M428.454,184.339s17.781-14.011,37.3-14.011,40.766,14.011,40.766,14.011-21.25,14.151-40.766,14.151S428.454,184.339,428.454,184.339Z" transform="translate(-428.454 -169.95)" fill="none" stroke="#fff" stroke-width="1"/>
      <path id="Differenzmenge_1" data-name="Differenzmenge 1" d="M14.4,28.776A14.386,14.386,0,0,1,4.218,4.214a14.412,14.412,0,0,1,20.367,0A14.388,14.388,0,0,1,14.4,28.776ZM6.913,5.756a3.453,3.453,0,1,0,3.456,3.453A3.459,3.459,0,0,0,6.913,5.756Z" transform="translate(22.519 0)" fill="#fff"/>
    </g>
  </g>
</svg>
